<svg id="visual" viewBox="0 0 900 600" width="900" height="600" xmlns="http://www.w3.org/2000/svg" version="1.1">
    <rect x="0" y="0" width="900" height="600" fill="#FFFFFF"/>
    <path d="M0 128L13.7 163.7C27.3 199.3 54.7 270.7 82 268.8C109.3 267 136.7 192 163.8 208.3C191 224.7 218 332.3 245.2 388.3C272.3 444.3 299.7 448.7 327 403.8C354.3 359 381.7 265 409 233.5C436.3 202 463.7 233 491 258.3C518.3 283.7 545.7 303.3 573 300.2C600.3 297 627.7 271 654.8 290.8C682 310.7 709 376.3 736.2 391.8C763.3 407.3 790.7 372.7 818 323.3C845.3 274 872.7 210 886.3 178L900 146" fill="none" stroke-linecap="round" stroke-linejoin="miter" stroke="#77C9D4" stroke-width="12"/>
</svg>